<?xml version="1.0" standalone="no"?>
<svg xmlns="http://www.w3.org/2000/svg" version="1.1" width="1122" height="1122">
	<!-- Created with https://api.qrserver.com (QR Code API, see goQR.me/api for information) -->
	<title>QR Code</title>
	<desc>https://utkusimsek.com</desc>
	<rect style="fill:rgb(255, 255, 255);fill-opacity:1" x="0" y="0" width="1122" height="1122" />
	<g id="elements">
		<path style="fill:rgb(0, 0, 0)" d="M 68,68 l 34,0 0,34 -34,0 z M 102,68 l 34,0 0,34 -34,0 z M 136,68 l 34,0 0,34 -34,0 z M 170,68 l 34,0 0,34 -34,0 z M 204,68 l 34,0 0,34 -34,0 z M 238,68 l 34,0 0,34 -34,0 z M 272,68 l 34,0 0,34 -34,0 z M 340,68 l 34,0 0,34 -34,0 z M 374,68 l 34,0 0,34 -34,0 z M 408,68 l 34,0 0,34 -34,0 z M 578,68 l 34,0 0,34 -34,0 z M 612,68 l 34,0 0,34 -34,0 z M 646,68 l 34,0 0,34 -34,0 z M 680,68 l 34,0 0,34 -34,0 z M 748,68 l 34,0 0,34 -34,0 z M 816,68 l 34,0 0,34 -34,0 z M 850,68 l 34,0 0,34 -34,0 z M 884,68 l 34,0 0,34 -34,0 z M 918,68 l 34,0 0,34 -34,0 z M 952,68 l 34,0 0,34 -34,0 z M 986,68 l 34,0 0,34 -34,0 z M 1020,68 l 34,0 0,34 -34,0 z M 68,102 l 34,0 0,34 -34,0 z M 272,102 l 34,0 0,34 -34,0 z M 340,102 l 34,0 0,34 -34,0 z M 374,102 l 34,0 0,34 -34,0 z M 408,102 l 34,0 0,34 -34,0 z M 510,102 l 34,0 0,34 -34,0 z M 612,102 l 34,0 0,34 -34,0 z M 646,102 l 34,0 0,34 -34,0 z M 680,102 l 34,0 0,34 -34,0 z M 714,102 l 34,0 0,34 -34,0 z M 816,102 l 34,0 0,34 -34,0 z M 1020,102 l 34,0 0,34 -34,0 z M 68,136 l 34,0 0,34 -34,0 z M 136,136 l 34,0 0,34 -34,0 z M 170,136 l 34,0 0,34 -34,0 z M 204,136 l 34,0 0,34 -34,0 z M 272,136 l 34,0 0,34 -34,0 z M 340,136 l 34,0 0,34 -34,0 z M 374,136 l 34,0 0,34 -34,0 z M 510,136 l 34,0 0,34 -34,0 z M 544,136 l 34,0 0,34 -34,0 z M 714,136 l 34,0 0,34 -34,0 z M 748,136 l 34,0 0,34 -34,0 z M 816,136 l 34,0 0,34 -34,0 z M 884,136 l 34,0 0,34 -34,0 z M 918,136 l 34,0 0,34 -34,0 z M 952,136 l 34,0 0,34 -34,0 z M 1020,136 l 34,0 0,34 -34,0 z M 68,170 l 34,0 0,34 -34,0 z M 136,170 l 34,0 0,34 -34,0 z M 170,170 l 34,0 0,34 -34,0 z M 204,170 l 34,0 0,34 -34,0 z M 272,170 l 34,0 0,34 -34,0 z M 408,170 l 34,0 0,34 -34,0 z M 476,170 l 34,0 0,34 -34,0 z M 510,170 l 34,0 0,34 -34,0 z M 544,170 l 34,0 0,34 -34,0 z M 578,170 l 34,0 0,34 -34,0 z M 612,170 l 34,0 0,34 -34,0 z M 646,170 l 34,0 0,34 -34,0 z M 714,170 l 34,0 0,34 -34,0 z M 816,170 l 34,0 0,34 -34,0 z M 884,170 l 34,0 0,34 -34,0 z M 918,170 l 34,0 0,34 -34,0 z M 952,170 l 34,0 0,34 -34,0 z M 1020,170 l 34,0 0,34 -34,0 z M 68,204 l 34,0 0,34 -34,0 z M 136,204 l 34,0 0,34 -34,0 z M 170,204 l 34,0 0,34 -34,0 z M 204,204 l 34,0 0,34 -34,0 z M 272,204 l 34,0 0,34 -34,0 z M 374,204 l 34,0 0,34 -34,0 z M 442,204 l 34,0 0,34 -34,0 z M 476,204 l 34,0 0,34 -34,0 z M 578,204 l 34,0 0,34 -34,0 z M 714,204 l 34,0 0,34 -34,0 z M 748,204 l 34,0 0,34 -34,0 z M 816,204 l 34,0 0,34 -34,0 z M 884,204 l 34,0 0,34 -34,0 z M 918,204 l 34,0 0,34 -34,0 z M 952,204 l 34,0 0,34 -34,0 z M 1020,204 l 34,0 0,34 -34,0 z M 68,238 l 34,0 0,34 -34,0 z M 272,238 l 34,0 0,34 -34,0 z M 340,238 l 34,0 0,34 -34,0 z M 408,238 l 34,0 0,34 -34,0 z M 442,238 l 34,0 0,34 -34,0 z M 476,238 l 34,0 0,34 -34,0 z M 510,238 l 34,0 0,34 -34,0 z M 612,238 l 34,0 0,34 -34,0 z M 680,238 l 34,0 0,34 -34,0 z M 816,238 l 34,0 0,34 -34,0 z M 1020,238 l 34,0 0,34 -34,0 z M 68,272 l 34,0 0,34 -34,0 z M 102,272 l 34,0 0,34 -34,0 z M 136,272 l 34,0 0,34 -34,0 z M 170,272 l 34,0 0,34 -34,0 z M 204,272 l 34,0 0,34 -34,0 z M 238,272 l 34,0 0,34 -34,0 z M 272,272 l 34,0 0,34 -34,0 z M 340,272 l 34,0 0,34 -34,0 z M 408,272 l 34,0 0,34 -34,0 z M 476,272 l 34,0 0,34 -34,0 z M 544,272 l 34,0 0,34 -34,0 z M 612,272 l 34,0 0,34 -34,0 z M 680,272 l 34,0 0,34 -34,0 z M 748,272 l 34,0 0,34 -34,0 z M 816,272 l 34,0 0,34 -34,0 z M 850,272 l 34,0 0,34 -34,0 z M 884,272 l 34,0 0,34 -34,0 z M 918,272 l 34,0 0,34 -34,0 z M 952,272 l 34,0 0,34 -34,0 z M 986,272 l 34,0 0,34 -34,0 z M 1020,272 l 34,0 0,34 -34,0 z M 340,306 l 34,0 0,34 -34,0 z M 374,306 l 34,0 0,34 -34,0 z M 408,306 l 34,0 0,34 -34,0 z M 510,306 l 34,0 0,34 -34,0 z M 544,306 l 34,0 0,34 -34,0 z M 578,306 l 34,0 0,34 -34,0 z M 612,306 l 34,0 0,34 -34,0 z M 748,306 l 34,0 0,34 -34,0 z M 136,340 l 34,0 0,34 -34,0 z M 170,340 l 34,0 0,34 -34,0 z M 204,340 l 34,0 0,34 -34,0 z M 272,340 l 34,0 0,34 -34,0 z M 340,340 l 34,0 0,34 -34,0 z M 408,340 l 34,0 0,34 -34,0 z M 442,340 l 34,0 0,34 -34,0 z M 476,340 l 34,0 0,34 -34,0 z M 510,340 l 34,0 0,34 -34,0 z M 544,340 l 34,0 0,34 -34,0 z M 578,340 l 34,0 0,34 -34,0 z M 680,340 l 34,0 0,34 -34,0 z M 782,340 l 34,0 0,34 -34,0 z M 816,340 l 34,0 0,34 -34,0 z M 850,340 l 34,0 0,34 -34,0 z M 952,340 l 34,0 0,34 -34,0 z M 986,340 l 34,0 0,34 -34,0 z M 1020,340 l 34,0 0,34 -34,0 z M 136,374 l 34,0 0,34 -34,0 z M 306,374 l 34,0 0,34 -34,0 z M 340,374 l 34,0 0,34 -34,0 z M 408,374 l 34,0 0,34 -34,0 z M 578,374 l 34,0 0,34 -34,0 z M 612,374 l 34,0 0,34 -34,0 z M 782,374 l 34,0 0,34 -34,0 z M 816,374 l 34,0 0,34 -34,0 z M 884,374 l 34,0 0,34 -34,0 z M 952,374 l 34,0 0,34 -34,0 z M 1020,374 l 34,0 0,34 -34,0 z M 136,408 l 34,0 0,34 -34,0 z M 170,408 l 34,0 0,34 -34,0 z M 272,408 l 34,0 0,34 -34,0 z M 340,408 l 34,0 0,34 -34,0 z M 374,408 l 34,0 0,34 -34,0 z M 476,408 l 34,0 0,34 -34,0 z M 578,408 l 34,0 0,34 -34,0 z M 748,408 l 34,0 0,34 -34,0 z M 782,408 l 34,0 0,34 -34,0 z M 816,408 l 34,0 0,34 -34,0 z M 850,408 l 34,0 0,34 -34,0 z M 918,408 l 34,0 0,34 -34,0 z M 68,442 l 34,0 0,34 -34,0 z M 306,442 l 34,0 0,34 -34,0 z M 374,442 l 34,0 0,34 -34,0 z M 442,442 l 34,0 0,34 -34,0 z M 510,442 l 34,0 0,34 -34,0 z M 578,442 l 34,0 0,34 -34,0 z M 612,442 l 34,0 0,34 -34,0 z M 646,442 l 34,0 0,34 -34,0 z M 680,442 l 34,0 0,34 -34,0 z M 748,442 l 34,0 0,34 -34,0 z M 782,442 l 34,0 0,34 -34,0 z M 816,442 l 34,0 0,34 -34,0 z M 918,442 l 34,0 0,34 -34,0 z M 986,442 l 34,0 0,34 -34,0 z M 102,476 l 34,0 0,34 -34,0 z M 136,476 l 34,0 0,34 -34,0 z M 204,476 l 34,0 0,34 -34,0 z M 238,476 l 34,0 0,34 -34,0 z M 272,476 l 34,0 0,34 -34,0 z M 340,476 l 34,0 0,34 -34,0 z M 374,476 l 34,0 0,34 -34,0 z M 442,476 l 34,0 0,34 -34,0 z M 510,476 l 34,0 0,34 -34,0 z M 578,476 l 34,0 0,34 -34,0 z M 612,476 l 34,0 0,34 -34,0 z M 646,476 l 34,0 0,34 -34,0 z M 680,476 l 34,0 0,34 -34,0 z M 714,476 l 34,0 0,34 -34,0 z M 748,476 l 34,0 0,34 -34,0 z M 782,476 l 34,0 0,34 -34,0 z M 850,476 l 34,0 0,34 -34,0 z M 952,476 l 34,0 0,34 -34,0 z M 986,476 l 34,0 0,34 -34,0 z M 1020,476 l 34,0 0,34 -34,0 z M 68,510 l 34,0 0,34 -34,0 z M 204,510 l 34,0 0,34 -34,0 z M 340,510 l 34,0 0,34 -34,0 z M 408,510 l 34,0 0,34 -34,0 z M 442,510 l 34,0 0,34 -34,0 z M 510,510 l 34,0 0,34 -34,0 z M 578,510 l 34,0 0,34 -34,0 z M 612,510 l 34,0 0,34 -34,0 z M 680,510 l 34,0 0,34 -34,0 z M 714,510 l 34,0 0,34 -34,0 z M 748,510 l 34,0 0,34 -34,0 z M 782,510 l 34,0 0,34 -34,0 z M 816,510 l 34,0 0,34 -34,0 z M 884,510 l 34,0 0,34 -34,0 z M 918,510 l 34,0 0,34 -34,0 z M 986,510 l 34,0 0,34 -34,0 z M 1020,510 l 34,0 0,34 -34,0 z M 68,544 l 34,0 0,34 -34,0 z M 102,544 l 34,0 0,34 -34,0 z M 170,544 l 34,0 0,34 -34,0 z M 238,544 l 34,0 0,34 -34,0 z M 272,544 l 34,0 0,34 -34,0 z M 306,544 l 34,0 0,34 -34,0 z M 374,544 l 34,0 0,34 -34,0 z M 510,544 l 34,0 0,34 -34,0 z M 544,544 l 34,0 0,34 -34,0 z M 578,544 l 34,0 0,34 -34,0 z M 612,544 l 34,0 0,34 -34,0 z M 680,544 l 34,0 0,34 -34,0 z M 748,544 l 34,0 0,34 -34,0 z M 816,544 l 34,0 0,34 -34,0 z M 850,544 l 34,0 0,34 -34,0 z M 68,578 l 34,0 0,34 -34,0 z M 136,578 l 34,0 0,34 -34,0 z M 170,578 l 34,0 0,34 -34,0 z M 204,578 l 34,0 0,34 -34,0 z M 238,578 l 34,0 0,34 -34,0 z M 340,578 l 34,0 0,34 -34,0 z M 374,578 l 34,0 0,34 -34,0 z M 442,578 l 34,0 0,34 -34,0 z M 510,578 l 34,0 0,34 -34,0 z M 544,578 l 34,0 0,34 -34,0 z M 578,578 l 34,0 0,34 -34,0 z M 612,578 l 34,0 0,34 -34,0 z M 646,578 l 34,0 0,34 -34,0 z M 680,578 l 34,0 0,34 -34,0 z M 748,578 l 34,0 0,34 -34,0 z M 782,578 l 34,0 0,34 -34,0 z M 816,578 l 34,0 0,34 -34,0 z M 884,578 l 34,0 0,34 -34,0 z M 918,578 l 34,0 0,34 -34,0 z M 1020,578 l 34,0 0,34 -34,0 z M 102,612 l 34,0 0,34 -34,0 z M 204,612 l 34,0 0,34 -34,0 z M 272,612 l 34,0 0,34 -34,0 z M 340,612 l 34,0 0,34 -34,0 z M 442,612 l 34,0 0,34 -34,0 z M 476,612 l 34,0 0,34 -34,0 z M 544,612 l 34,0 0,34 -34,0 z M 578,612 l 34,0 0,34 -34,0 z M 918,612 l 34,0 0,34 -34,0 z M 952,612 l 34,0 0,34 -34,0 z M 986,612 l 34,0 0,34 -34,0 z M 68,646 l 34,0 0,34 -34,0 z M 102,646 l 34,0 0,34 -34,0 z M 136,646 l 34,0 0,34 -34,0 z M 306,646 l 34,0 0,34 -34,0 z M 510,646 l 34,0 0,34 -34,0 z M 578,646 l 34,0 0,34 -34,0 z M 612,646 l 34,0 0,34 -34,0 z M 646,646 l 34,0 0,34 -34,0 z M 680,646 l 34,0 0,34 -34,0 z M 714,646 l 34,0 0,34 -34,0 z M 748,646 l 34,0 0,34 -34,0 z M 782,646 l 34,0 0,34 -34,0 z M 816,646 l 34,0 0,34 -34,0 z M 850,646 l 34,0 0,34 -34,0 z M 884,646 l 34,0 0,34 -34,0 z M 918,646 l 34,0 0,34 -34,0 z M 952,646 l 34,0 0,34 -34,0 z M 986,646 l 34,0 0,34 -34,0 z M 1020,646 l 34,0 0,34 -34,0 z M 68,680 l 34,0 0,34 -34,0 z M 136,680 l 34,0 0,34 -34,0 z M 170,680 l 34,0 0,34 -34,0 z M 272,680 l 34,0 0,34 -34,0 z M 306,680 l 34,0 0,34 -34,0 z M 408,680 l 34,0 0,34 -34,0 z M 476,680 l 34,0 0,34 -34,0 z M 510,680 l 34,0 0,34 -34,0 z M 578,680 l 34,0 0,34 -34,0 z M 612,680 l 34,0 0,34 -34,0 z M 646,680 l 34,0 0,34 -34,0 z M 680,680 l 34,0 0,34 -34,0 z M 748,680 l 34,0 0,34 -34,0 z M 816,680 l 34,0 0,34 -34,0 z M 850,680 l 34,0 0,34 -34,0 z M 884,680 l 34,0 0,34 -34,0 z M 918,680 l 34,0 0,34 -34,0 z M 68,714 l 34,0 0,34 -34,0 z M 204,714 l 34,0 0,34 -34,0 z M 340,714 l 34,0 0,34 -34,0 z M 374,714 l 34,0 0,34 -34,0 z M 408,714 l 34,0 0,34 -34,0 z M 442,714 l 34,0 0,34 -34,0 z M 578,714 l 34,0 0,34 -34,0 z M 646,714 l 34,0 0,34 -34,0 z M 714,714 l 34,0 0,34 -34,0 z M 748,714 l 34,0 0,34 -34,0 z M 816,714 l 34,0 0,34 -34,0 z M 850,714 l 34,0 0,34 -34,0 z M 884,714 l 34,0 0,34 -34,0 z M 918,714 l 34,0 0,34 -34,0 z M 986,714 l 34,0 0,34 -34,0 z M 1020,714 l 34,0 0,34 -34,0 z M 68,748 l 34,0 0,34 -34,0 z M 170,748 l 34,0 0,34 -34,0 z M 204,748 l 34,0 0,34 -34,0 z M 272,748 l 34,0 0,34 -34,0 z M 374,748 l 34,0 0,34 -34,0 z M 408,748 l 34,0 0,34 -34,0 z M 442,748 l 34,0 0,34 -34,0 z M 476,748 l 34,0 0,34 -34,0 z M 544,748 l 34,0 0,34 -34,0 z M 714,748 l 34,0 0,34 -34,0 z M 748,748 l 34,0 0,34 -34,0 z M 782,748 l 34,0 0,34 -34,0 z M 816,748 l 34,0 0,34 -34,0 z M 850,748 l 34,0 0,34 -34,0 z M 884,748 l 34,0 0,34 -34,0 z M 918,748 l 34,0 0,34 -34,0 z M 952,748 l 34,0 0,34 -34,0 z M 340,782 l 34,0 0,34 -34,0 z M 374,782 l 34,0 0,34 -34,0 z M 408,782 l 34,0 0,34 -34,0 z M 442,782 l 34,0 0,34 -34,0 z M 476,782 l 34,0 0,34 -34,0 z M 544,782 l 34,0 0,34 -34,0 z M 612,782 l 34,0 0,34 -34,0 z M 714,782 l 34,0 0,34 -34,0 z M 748,782 l 34,0 0,34 -34,0 z M 884,782 l 34,0 0,34 -34,0 z M 918,782 l 34,0 0,34 -34,0 z M 1020,782 l 34,0 0,34 -34,0 z M 68,816 l 34,0 0,34 -34,0 z M 102,816 l 34,0 0,34 -34,0 z M 136,816 l 34,0 0,34 -34,0 z M 170,816 l 34,0 0,34 -34,0 z M 204,816 l 34,0 0,34 -34,0 z M 238,816 l 34,0 0,34 -34,0 z M 272,816 l 34,0 0,34 -34,0 z M 374,816 l 34,0 0,34 -34,0 z M 408,816 l 34,0 0,34 -34,0 z M 476,816 l 34,0 0,34 -34,0 z M 578,816 l 34,0 0,34 -34,0 z M 612,816 l 34,0 0,34 -34,0 z M 646,816 l 34,0 0,34 -34,0 z M 714,816 l 34,0 0,34 -34,0 z M 748,816 l 34,0 0,34 -34,0 z M 816,816 l 34,0 0,34 -34,0 z M 884,816 l 34,0 0,34 -34,0 z M 68,850 l 34,0 0,34 -34,0 z M 272,850 l 34,0 0,34 -34,0 z M 374,850 l 34,0 0,34 -34,0 z M 408,850 l 34,0 0,34 -34,0 z M 442,850 l 34,0 0,34 -34,0 z M 476,850 l 34,0 0,34 -34,0 z M 510,850 l 34,0 0,34 -34,0 z M 646,850 l 34,0 0,34 -34,0 z M 680,850 l 34,0 0,34 -34,0 z M 714,850 l 34,0 0,34 -34,0 z M 748,850 l 34,0 0,34 -34,0 z M 884,850 l 34,0 0,34 -34,0 z M 918,850 l 34,0 0,34 -34,0 z M 68,884 l 34,0 0,34 -34,0 z M 136,884 l 34,0 0,34 -34,0 z M 170,884 l 34,0 0,34 -34,0 z M 204,884 l 34,0 0,34 -34,0 z M 272,884 l 34,0 0,34 -34,0 z M 340,884 l 34,0 0,34 -34,0 z M 442,884 l 34,0 0,34 -34,0 z M 476,884 l 34,0 0,34 -34,0 z M 578,884 l 34,0 0,34 -34,0 z M 646,884 l 34,0 0,34 -34,0 z M 680,884 l 34,0 0,34 -34,0 z M 748,884 l 34,0 0,34 -34,0 z M 782,884 l 34,0 0,34 -34,0 z M 816,884 l 34,0 0,34 -34,0 z M 850,884 l 34,0 0,34 -34,0 z M 884,884 l 34,0 0,34 -34,0 z M 918,884 l 34,0 0,34 -34,0 z M 952,884 l 34,0 0,34 -34,0 z M 68,918 l 34,0 0,34 -34,0 z M 136,918 l 34,0 0,34 -34,0 z M 170,918 l 34,0 0,34 -34,0 z M 204,918 l 34,0 0,34 -34,0 z M 272,918 l 34,0 0,34 -34,0 z M 340,918 l 34,0 0,34 -34,0 z M 408,918 l 34,0 0,34 -34,0 z M 476,918 l 34,0 0,34 -34,0 z M 510,918 l 34,0 0,34 -34,0 z M 544,918 l 34,0 0,34 -34,0 z M 646,918 l 34,0 0,34 -34,0 z M 680,918 l 34,0 0,34 -34,0 z M 714,918 l 34,0 0,34 -34,0 z M 748,918 l 34,0 0,34 -34,0 z M 782,918 l 34,0 0,34 -34,0 z M 850,918 l 34,0 0,34 -34,0 z M 68,952 l 34,0 0,34 -34,0 z M 136,952 l 34,0 0,34 -34,0 z M 170,952 l 34,0 0,34 -34,0 z M 204,952 l 34,0 0,34 -34,0 z M 272,952 l 34,0 0,34 -34,0 z M 340,952 l 34,0 0,34 -34,0 z M 510,952 l 34,0 0,34 -34,0 z M 612,952 l 34,0 0,34 -34,0 z M 646,952 l 34,0 0,34 -34,0 z M 680,952 l 34,0 0,34 -34,0 z M 714,952 l 34,0 0,34 -34,0 z M 748,952 l 34,0 0,34 -34,0 z M 782,952 l 34,0 0,34 -34,0 z M 816,952 l 34,0 0,34 -34,0 z M 850,952 l 34,0 0,34 -34,0 z M 884,952 l 34,0 0,34 -34,0 z M 918,952 l 34,0 0,34 -34,0 z M 952,952 l 34,0 0,34 -34,0 z M 986,952 l 34,0 0,34 -34,0 z M 68,986 l 34,0 0,34 -34,0 z M 272,986 l 34,0 0,34 -34,0 z M 374,986 l 34,0 0,34 -34,0 z M 408,986 l 34,0 0,34 -34,0 z M 442,986 l 34,0 0,34 -34,0 z M 544,986 l 34,0 0,34 -34,0 z M 578,986 l 34,0 0,34 -34,0 z M 612,986 l 34,0 0,34 -34,0 z M 680,986 l 34,0 0,34 -34,0 z M 748,986 l 34,0 0,34 -34,0 z M 782,986 l 34,0 0,34 -34,0 z M 884,986 l 34,0 0,34 -34,0 z M 918,986 l 34,0 0,34 -34,0 z M 986,986 l 34,0 0,34 -34,0 z M 68,1020 l 34,0 0,34 -34,0 z M 102,1020 l 34,0 0,34 -34,0 z M 136,1020 l 34,0 0,34 -34,0 z M 170,1020 l 34,0 0,34 -34,0 z M 204,1020 l 34,0 0,34 -34,0 z M 238,1020 l 34,0 0,34 -34,0 z M 272,1020 l 34,0 0,34 -34,0 z M 510,1020 l 34,0 0,34 -34,0 z M 544,1020 l 34,0 0,34 -34,0 z M 578,1020 l 34,0 0,34 -34,0 z M 612,1020 l 34,0 0,34 -34,0 z M 646,1020 l 34,0 0,34 -34,0 z M 680,1020 l 34,0 0,34 -34,0 z M 714,1020 l 34,0 0,34 -34,0 z M 816,1020 l 34,0 0,34 -34,0 z M 884,1020 l 34,0 0,34 -34,0 z M 952,1020 l 34,0 0,34 -34,0 z " />
	</g>
</svg>
